<svg width="180" height="29" viewBox="0 0 180 29" fill="none" xmlns="http://www.w3.org/2000/svg">
<path d="M49.1418 16.0232C49.1418 18.6825 50.8993 20.1637 52.9883 20.1637C54.9447 20.1637 56.039 18.9182 56.4037 17.6726L60.8471 19.0528C60.1176 21.9815 57.3985 24.8765 52.9883 24.8765C48.0807 24.8765 44.1348 21.2072 44.1348 16.0232C44.1348 10.8055 47.9813 7.13623 52.8225 7.13623C57.3654 7.13623 60.0181 9.96389 60.7476 12.9599L56.2379 14.34C55.8732 13.0609 54.8784 11.849 52.922 11.849C50.833 11.849 49.1418 13.3302 49.1418 16.0232Z" fill="white"/>
<path d="M78.974 15.9895C78.974 21.1736 75.1606 24.8765 70.2199 24.8765C65.3123 24.8765 61.4658 21.1736 61.4658 15.9895C61.4658 10.8055 65.3123 7.13623 70.2199 7.13623C75.1606 7.13623 78.974 10.8055 78.974 15.9895ZM73.9337 15.9895C73.9337 13.1618 72.1431 11.849 70.2199 11.849C68.3298 11.849 66.506 13.1618 66.506 15.9895C66.506 18.7835 68.3298 20.1637 70.2199 20.1637C72.1431 20.1637 73.9337 18.8172 73.9337 15.9895Z" fill="white"/>
<path d="M97.3335 21.3758V0H92.3596V8.95427C91.9617 8.31468 90.7348 7.23747 87.9162 7.23747C86.8662 7.23747 85.888 7.42261 84.9982 7.77607C81.9199 8.97671 79.9248 12.0905 79.9248 15.9561C79.9248 21.1065 83.4397 24.742 88.082 24.742C90.0716 24.742 91.7295 23.9005 92.4922 22.756C92.4922 23.4292 92.5917 24.1698 92.6248 24.3718H97.4661C97.433 24.0015 97.3335 22.8906 97.3335 21.3758ZM92.3596 16.865C92.354 16.9211 92.343 16.9716 92.3319 17.0277C91.9506 19.1036 90.4087 20.1639 88.712 20.1639C87.0154 20.1639 85.4735 19.1036 85.0921 17.0277C85.0313 16.7079 84.9982 16.3601 84.9982 15.9898C84.9982 13.1958 86.7556 11.8493 88.712 11.8493C90.4474 11.8493 92.028 12.9096 92.3596 15.1033C92.4038 15.3782 92.4259 15.6756 92.4259 15.9898C92.4259 16.2983 92.4038 16.5901 92.3596 16.865Z" fill="white"/>
<path d="M114.653 19.5578C113.858 22.4527 111.238 24.8765 107.06 24.8765C102.517 24.8765 98.4717 21.5775 98.4717 15.9558C98.4717 10.5698 102.418 7.13623 106.695 7.13623C111.802 7.13623 114.952 10.3342 114.952 15.7202C114.952 16.4271 114.886 17.2014 114.852 17.3024H103.379C103.479 19.1875 105.17 20.534 107.126 20.534C108.95 20.534 109.978 19.6587 110.442 18.3459L114.653 19.5578ZM110.077 14.0034C110.011 12.7242 109.149 11.1757 106.762 11.1757C104.639 11.1757 103.578 12.7579 103.479 14.0034H110.077Z" fill="white"/>
<path d="M126.471 12.6909C125.907 12.5562 125.376 12.5225 124.879 12.5225C122.856 12.5225 121.032 13.7344 121.032 17.067V24.3718H115.992V7.64146H120.867V9.89686C121.729 8.01175 123.818 7.47314 125.144 7.47314C125.642 7.47314 126.139 7.54047 126.471 7.64146V12.6909Z" fill="white"/>
<path d="M131.466 18.8508C131.532 19.9954 132.328 21.1062 134.052 21.1062C135.346 21.1062 135.976 20.3993 135.976 19.6587C135.976 19.0528 135.578 18.5479 134.351 18.2786L132.461 17.841C128.946 17.0667 127.553 15.047 127.553 12.6906C127.553 9.62727 130.206 7.13623 133.887 7.13623C138.662 7.13623 140.32 10.1659 140.485 12.1183L136.307 12.8925C136.175 11.7817 135.478 10.8391 133.953 10.8391C132.991 10.8391 132.162 11.4114 132.162 12.2866C132.162 12.9935 132.726 13.3975 133.456 13.5321L135.644 13.9697C139.06 14.6767 140.718 16.7637 140.718 19.2211C140.718 22.0824 138.562 24.8765 134.152 24.8765C128.979 24.8765 127.321 21.4765 127.188 19.6251L131.466 18.8508Z" fill="white"/>
<path d="M167.576 24.3718H162.735C162.597 24.3718 162.602 23.1262 162.602 22.6886C161.74 24.1361 159.85 24.742 158.192 24.742C157.816 24.742 157.457 24.714 157.12 24.6635C153.831 24.181 152.234 21.4431 152.234 18.2115V14.7442C152.234 13.0948 151.372 11.8493 149.548 11.8493C147.957 11.8493 146.929 12.9938 146.829 14.5423V24.3718H141.789V0H146.829V8.71863C147.857 7.67509 149.582 7.20381 151.041 7.20381C155.351 7.20381 157.274 10.1998 157.274 13.869V17.1343C157.274 18.7501 157.827 20.0293 159.618 20.0293C161.309 20.0293 162.37 18.8511 162.37 17.168V7.64142H167.41V21.3758C167.41 22.8906 167.543 24.1025 167.576 24.3718Z" fill="white"/>
<path d="M176.784 7.64183H180V12.119H176.784V18.3802C176.784 19.7604 177.513 20.1307 178.607 20.1307C179.138 20.1307 179.635 20.0297 179.934 19.9624V24.2039C179.735 24.3048 178.906 24.6751 177.314 24.6751C173.899 24.6751 171.81 22.6217 171.81 19.2891V12.119H168.892V7.64183H169.721C171.445 7.64183 172.274 6.46363 172.274 4.91515V2.76074H176.784V7.64183Z" fill="white"/>
<path d="M84.998 17.0277V15.9897C84.998 16.36 85.0314 16.7079 85.0927 17.0277H84.998Z" fill="url(#paint0_linear_44_1121)"/>
<path opacity="0.7" d="M92.3594 8.9541V15.1031C92.0278 12.9095 90.4472 11.8491 88.7119 11.8491C86.7555 11.8491 84.998 13.1956 84.998 15.9896V7.77591C85.8878 7.42245 86.866 7.2373 87.9161 7.2373C90.7346 7.2373 91.9615 8.31451 92.3594 8.9541Z" fill="url(#paint1_linear_44_1121)"/>
<path d="M92.3311 17.0274C92.3424 16.9713 92.3538 16.9209 92.3595 16.8647V17.0274H92.3311Z" fill="url(#paint2_linear_44_1121)"/>
<path d="M18.7361 3H25.2416V12.799H34.7398V19.3317H25.3717L35 29H26.2825L16.6543 19.3317V29H10.2788V19.3317H0.650555V12.799H9.75836L0 3H8.97769L18.7361 12.799V3Z" fill="#22A45A"/>
<defs>
<linearGradient id="paint0_linear_44_1121" x1="84.9981" y1="16.5087" x2="85.0928" y2="16.5087" gradientUnits="userSpaceOnUse">
<stop stop-color="white"/>
<stop offset="1"/>
</linearGradient>
<linearGradient id="paint1_linear_44_1121" x1="84.9981" y1="11.6134" x2="92.3595" y2="11.6134" gradientUnits="userSpaceOnUse">
<stop stop-color="white"/>
<stop offset="1"/>
</linearGradient>
<linearGradient id="paint2_linear_44_1121" x1="92.3311" y1="16.9461" x2="92.3595" y2="16.9461" gradientUnits="userSpaceOnUse">
<stop stop-color="white"/>
<stop offset="1"/>
</linearGradient>
</defs>
</svg>
